<?xml version="1.0" encoding="UTF-8" standalone="no"?>
<svg width="48px" height="48px" viewBox="0 0 48 48" version="1.1" xmlns="http://www.w3.org/2000/svg" xmlns:xlink="http://www.w3.org/1999/xlink">
    <!-- Generator: Sketch 3.7.2 (28276) - http://www.bohemiancoding.com/sketch -->
    <title>Broken</title>
    <desc>Created with Sketch.</desc>
    <defs>
        <path d="M41.9999998,30 C42.4999999,30 42.9999997,30.4999998 42.9999998,30.9999999 C42.9999999,31.5000001 42.9999998,37.4999993 42.9999999,37.9999997 C43,38.5 42.4999998,38.9999993 41.9999999,38.9999997 C41.5,39 38.5000001,38.9999993 38,38.9999997 C37.5,39 37,38.5 37,37.9999997 C37,37.5 37,31.5 37,31 C37,30.5 37.5000001,30 38,30 C38.4999999,30 41.4999997,30 41.9999998,30 Z" id="path-1"></path>
        <mask id="mask-2" maskContentUnits="userSpaceOnUse" maskUnits="objectBoundingBox" x="0" y="0" width="5.99999992" height="8.99999976" fill="white">
            <use xlink:href="#path-1"></use>
        </mask>
    </defs>
    <g id="48x48" stroke="none" stroke-width="1" fill="none" fill-rule="evenodd">
        <g id="Broken">
            <g id="Broken-:-Glyph" transform="translate(2.000000, 9.000000)" stroke="#FFFFFF">
                <path d="M22,4.82963287 C15.6666667,-4.55892448 3,0.937427148 3,11.1648354 C3,18.0853556 9.327,23.02143 14.0833333,26.7399184 C19.03125,30.6070838 20.4166667,31.4349796 22,33 C23.5833333,31.4349796 24.907,30.5241377 29.9166667,26.7399184 C34.74425,23.0965509 41,18.0086696 41,11.0897145 C41,0.937427148 28.3333333,-4.55892448 22,4.82963287" id="Imported-Layers" stroke-width="1.881" stroke-linecap="round" stroke-linejoin="round"></path>
                <path d="M30.5,26.5 C30.5,26.5 40.5,26.0962605 34,30.5962605 C27.5,35.0962605 38,33.9999999 38,33.9999999" id="Path-73" stroke-width="2" stroke-linecap="round" stroke-linejoin="round"></path>
                <use id="Path-74" mask="url(#mask-2)" stroke-width="4" xlink:href="#path-1"></use>
                <path d="M42,33 L45,33" id="Path-75" stroke-width="2" stroke-linecap="round"></path>
                <path d="M42,36 L45,36" id="Path-75" stroke-width="2" stroke-linecap="round"></path>
            </g>
            <circle id="Oval-4" fill="#FFFFFF" cx="16" cy="20" r="2"></circle>
            <circle id="Oval-4" fill="#FFFFFF" cx="32" cy="20" r="2"></circle>
            <path d="M18,31 C18,31 21,28.5 24,28.5 C27,28.5 30,31 30,31" id="Path-79" stroke="#FFFFFF" stroke-width="2" stroke-linecap="round" stroke-linejoin="round"></path>
        </g>
    </g>
</svg>