<?xml version="1.0" encoding="UTF-8" standalone="no"?>
<svg width="24px" height="24px" viewBox="0 0 24 24" version="1.1" xmlns="http://www.w3.org/2000/svg" xmlns:xlink="http://www.w3.org/1999/xlink" xmlns:sketch="http://www.bohemiancoding.com/sketch/ns">
    <!-- Generator: Sketch 3.5.2 (25235) - http://www.bohemiancoding.com/sketch -->
    <title>heartstrings</title>
    <desc>Created with Sketch.</desc>
    <defs></defs>
    <g id="24x24" stroke="none" stroke-width="1" fill="none" fill-rule="evenodd" sketch:type="MSPage">
        <g id="heartstrings" sketch:type="MSArtboardGroup" fill="#3E97BD">
            <path d="M16.6060606,5.10879954 C15.8681663,4.93869631 15.0883554,4.96229963 14.3434343,5.22038751 L14.3434343,17.0353348 C14.6577308,16.8023573 15.0213717,16.5329652 15.4478114,16.2152964 C15.8204019,15.9379935 16.2129947,15.6407392 16.6060606,15.3225646 L16.6060606,5.10879954 Z M17.7373737,5.53904365 C19.1267504,6.29384838 20.1616162,7.78499304 20.1616162,9.65126453 C20.1616162,11.5139343 19.0654663,13.0601973 17.7373737,14.3329281 L17.7373737,5.53904365 Z M13.2121212,5.82518598 C12.802986,6.13179954 12.4204802,6.52908707 12.0808081,7.0256518 C11.6967774,6.4642395 11.2579949,6.0297272 10.7878788,5.7097731 L10.7878788,17.7807794 C11.3686314,18.2147948 11.7121024,18.48151 12.0808081,18.8409091 C12.4161988,18.5139841 12.7241945,18.2551206 13.2121212,17.8815267 L13.2121212,5.82518598 Z M9.65656566,5.16871882 C8.90608523,4.944374 8.12617907,4.95250562 7.39393939,5.15248456 L7.39393939,15.1720071 C7.84264214,15.5438349 8.29269759,15.8906308 8.71380471,16.2152964 C9.06856458,16.4887315 9.38026407,16.7259389 9.65656566,16.934507 L9.65656566,5.16871882 Z M6.26262626,5.63723411 C4.95537089,6.42181554 4,7.87634451 4,9.68277189 C4,11.4634338 5.01270537,12.9308579 6.26262626,14.1593024 L6.26262626,5.63723411 Z" id="Imported-Layers" sketch:type="MSShapeGroup"></path>
        </g>
    </g>
</svg>