<?xml version="1.0" encoding="UTF-8" standalone="no"?>
<svg width="60px" height="60px" viewBox="0 0 60 60" version="1.1" xmlns="http://www.w3.org/2000/svg" xmlns:xlink="http://www.w3.org/1999/xlink" xmlns:sketch="http://www.bohemiancoding.com/sketch/ns">
    <!-- Generator: Sketch 3.5.2 (25235) - http://www.bohemiancoding.com/sketch -->
    <title>Oval 1</title>
    <desc>Created with Sketch.</desc>
    <defs>
        <radialGradient cx="50%" cy="50%" fx="50%" fy="50%" r="50%" id="radialGradient-1">
            <stop stop-color="#000000" stop-opacity="0" offset="0%"></stop>
            <stop stop-color="#000000" stop-opacity="0.3" offset="100%"></stop>
        </radialGradient>
    </defs>
    <g id="Mocks" stroke="none" stroke-width="1" fill="none" fill-rule="evenodd" sketch:type="MSPage">
        <g id="Heartstrings-Medium-02" sketch:type="MSArtboardGroup" transform="translate(-158.000000, -210.000000)" fill="#FFFFFF">
            <g id="Group" sketch:type="MSLayerGroup" transform="translate(11.000000, 186.000000)">
                <g id="Header" transform="translate(24.000000, 24.000000)" sketch:type="MSShapeGroup">
                    <path d="M153,60 C169.568542,60 183,46.5685425 183,30 C183,13.4314575 169.568542,0 153,0 C136.431458,0 123,13.4314575 123,30 C123,46.5685425 136.431458,60 153,60 Z M173,25.2954545 C173.0036,28.4446591 171.6788,31.5 169.2664,33.9026705 C167.8308,35.3261364 166.1772,36.9703409 164.4868,38.6511364 L154.7312,48.2697727 C154.3088,48.6897727 153.7424,48.9184659 153.1352,48.9184659 C152.4868,48.9184659 151.8716,48.6615341 151.408,48.1961932 C150.9528,47.7431818 150.6984,47.1481818 150.686,46.5197727 C150.6736,45.9040909 150.9032,45.3246023 151.3344,44.891875 L160.8188,35.4569886 L159.9336,34.575625 L150.4484,44.0117045 C150.0256,44.4277273 149.4556,44.6596023 148.8524,44.6596023 C148.2084,44.6596023 147.5932,44.4026705 147.1248,43.9385227 C146.6576,43.4731818 146.3992,42.8654545 146.3992,42.2211364 C146.3992,41.6169886 146.6288,41.0538068 147.0512,40.6338068 L156.536,31.198125 L155.5276,30.1950568 L146.0376,39.6259659 C145.6152,40.0463636 145.0488,40.2746591 144.442,40.2746591 C143.794,40.2746591 143.178,40.0177273 142.7144,39.5535795 C142.2592,39.1001705 142.0048,38.5047727 141.9924,37.8767614 C141.9756,37.2610795 142.2096,36.6811932 142.6404,36.2484659 L151.67,27.2705682 L151.9448,27.5438068 C152.6752,28.2660795 153.6596,28.6618182 154.714,28.6618182 C155.8672,28.6618182 157.0204,28.1761932 157.8776,27.3322159 C159.568,25.6430682 159.666,22.9957955 158.0908,21.4295455 L153.6932,17.0557386 C155.826,15.0818182 158.5908,14.0003977 161.5168,14.0003977 C164.5728,14.0003977 167.4532,15.1836364 169.6272,17.329375 C171.798,19.4743182 172.9964,22.3053409 173,25.2954545 Z M150.7844,26.3884091 L141.7552,35.3671023 C141.3328,35.783125 140.762,36.0157955 140.1596,36.0157955 C139.5152,36.0157955 138.9,35.7588636 138.4324,35.2939205 C137.9648,34.829375 137.7068,34.2216477 137.7068,33.5765341 C137.7068,32.9731818 137.9356,32.41 138.3588,31.99 L147.388,23.0113068 L150.7844,26.3884091 Z M157.1476,26.6047727 C156.4908,27.2574432 155.6056,27.6328977 154.7148,27.6328977 C153.9312,27.6328977 153.2052,27.3429545 152.6716,26.8171591 L144.6064,18.7930114 L143.876,19.5188636 L146.662,22.2886364 L137.632,31.2673295 C137.3656,31.5326136 137.152,31.8388636 136.992,32.1769318 C136.742,32.703125 136.6392,33.2826136 136.6884,33.858125 C134.3044,31.4634091 132.996,28.4239773 133,25.2954545 C133.004,22.3053409 134.202,19.4743182 136.3728,17.3285795 C138.5424,15.1832386 141.4224,14 144.4832,14 C146.2924,14 148.0156,14.4040909 149.6076,15.1951705 C150.2556,15.5133523 150.8872,15.9051136 151.4824,16.3656818 L151.7656,16.5860227 L157.3652,22.1502273 C158.5344,23.3211364 158.44,25.3193182 157.1476,26.6047727 Z" id="Oval-1"></path>
                </g>
            </g>
        </g>
    </g>
</svg>