<?xml version="1.0" encoding="UTF-8" standalone="no"?>
<svg width="24px" height="24px" viewBox="0 0 24 24" version="1.1" xmlns="http://www.w3.org/2000/svg" xmlns:xlink="http://www.w3.org/1999/xlink" xmlns:sketch="http://www.bohemiancoding.com/sketch/ns">
    <!-- Generator: Sketch 3.5.2 (25235) - http://www.bohemiancoding.com/sketch -->
    <title>heart-hands</title>
    <desc>Created with Sketch.</desc>
    <defs></defs>
    <g id="24x24" stroke="none" stroke-width="0" fill="none" fill-rule="evenodd" sketch:type="MSPage">
        <g id="heart-hands" sketch:type="MSArtboardGroup" fill="#3E97BD">
            <path d="M13.6590397,10.0536819 C13.3963198,10.3153596 13.0422399,10.4658921 12.6859201,10.4658921 C12.3724802,10.4658921 12.0820803,10.3496441 11.8686404,10.1388348 L8.64256175,6.92168119 L8.35040187,7.21270004 L9.46480141,8.32319608 L5.8528029,11.9230594 C5.74624294,12.0294208 5.66080297,12.1522068 5.596803,12.2877499 C5.49680304,12.4987186 5.45568306,12.7310553 5.47536305,12.9617974 C4.52176344,12.0016744 3.99840366,10.7830628 4.00000366,9.5287317 C4.00160366,8.3298935 4.48080346,7.19484025 5.3491231,6.33454069 C6.21696275,5.47440059 7.36896227,5 8.59328177,5 C9.31696147,5 10.0062412,5.16201378 10.6430409,5.47918446 C10.9022408,5.60675437 11.1548807,5.76382482 11.3929606,5.94848226 L11.5062406,6.03682442 L13.7460796,8.26770317 C14.2137595,8.73716043 14.1759995,9.53829945 13.6590397,10.0536819 Z M11.1137607,9.96693434 L7.50208222,13.5667977 C7.33312229,13.7335953 7.10480238,13.8268808 6.86384248,13.8268808 C6.60608259,13.8268808 6.36000269,13.7238681 6.17296276,13.5374566 C5.98592284,13.3512045 5.88272288,13.107546 5.88272288,12.848898 C5.88272288,12.6069936 5.97424285,12.3811948 6.14352278,12.2128026 L9.75520129,8.61293923 L11.1137607,9.96693434 Z M19.9999971,9.5287317 C20.0014371,10.7913549 19.4715173,12.0163449 18.5065577,12.9796572 C17.9323179,13.550373 17.2708782,14.2095905 16.5947185,14.8834786 L12.6924801,18.7399169 C12.5235201,18.9083091 12.2969602,19 12.0540803,19 C11.7947204,19 11.5486406,18.8969873 11.3632006,18.7104163 C11.1811207,18.5287887 11.0793607,18.2902329 11.0744007,18.0382824 C11.0694407,17.7914346 11.1612807,17.5590979 11.3337606,17.3856028 L15.1275191,13.6028362 L14.7734392,13.2494675 L10.9793608,17.0327126 C10.8102409,17.1995102 10.5822409,17.2924768 10.340961,17.2924768 C10.0833612,17.2924768 9.83728126,17.1894641 9.64992133,17.0033715 C9.46304141,16.8168005 9.35968145,16.573142 9.35968145,16.3148129 C9.35968145,16.0725896 9.45152141,15.8467908 9.62048134,15.6783985 L13.4143998,11.8953129 L13.0110399,11.4931488 L9.21504151,15.2743209 C9.04608158,15.4428726 8.81952167,15.534404 8.57680177,15.534404 C8.31760188,15.534404 8.07120198,15.4313913 7.88576206,15.2452987 C7.70368213,15.0635116 7.60192218,14.8247964 7.59696218,14.5730053 C7.59024218,14.3261575 7.68384214,14.0936614 7.85616207,13.9201663 L11.4680006,10.3206219 L11.5779205,10.4301726 C11.8700804,10.7197563 12.2638403,10.8784213 12.6856001,10.8784213 C13.1468799,10.8784213 13.6081597,10.6837178 13.9510396,10.3453386 C14.6271993,9.66810183 14.6663993,8.6067202 14.0363195,7.97875733 L12.2772803,6.2251495 C13.1303999,5.43373768 14.2363194,5.00015946 15.406719,5.00015946 C16.6291185,5.00015946 17.781278,5.47456005 18.6508776,6.33485962 C19.5191973,7.19484025 19.9985571,8.3298935 19.9999971,9.5287317 Z" id="Shape" sketch:type="MSShapeGroup"></path>
        </g>
    </g>
</svg>