<?xml version="1.0" encoding="UTF-8" standalone="no"?>
<svg width="24px" height="24px" viewBox="0 0 24 24" version="1.1" xmlns="http://www.w3.org/2000/svg" xmlns:xlink="http://www.w3.org/1999/xlink" xmlns:sketch="http://www.bohemiancoding.com/sketch/ns">
    <!-- Generator: Sketch 3.5.2 (25235) - http://www.bohemiancoding.com/sketch -->
    <title>info</title>
    <desc>Created with Sketch.</desc>
    <defs></defs>
    <g id="24x24" stroke="none" stroke-width="0" fill="none" fill-rule="evenodd" sketch:type="MSPage">
        <g id="info" sketch:type="MSArtboardGroup" fill="#3E97BD">
            <g id="Info-:-Glyph" sketch:type="MSLayerGroup" transform="translate(4.000000, 4.000000)">
                <path d="M8,16 C12.418278,16 16,12.418278 16,8 C16,3.581722 12.418278,0 8,0 C3.581722,0 0,3.581722 0,8 C0,12.418278 3.581722,16 8,16 Z M8.86489391,3 C9.14751015,3 9.38567914,3.09800255 9.57940802,3.29401059 C9.7731369,3.49001863 9.86999989,3.72704806 9.86999989,4.00510598 C9.86999989,4.2831639 9.77199733,4.52019332 9.57598929,4.71620136 C9.37998125,4.9122094 9.14295183,5.01021195 8.86489391,5.01021195 C8.59139432,5.01021195 8.35664402,4.9122094 8.16063598,4.71620136 C7.96462794,4.52019332 7.86662539,4.2831639 7.86662539,4.00510598 C7.86662539,3.72704806 7.96348837,3.49001863 8.15721725,3.29401059 C8.35094613,3.09800255 8.58683599,3 8.86489391,3 Z M9.28881616,6.14522959 L7.88713775,11.0066605 C7.8096462,11.2847185 7.77090101,11.4670488 7.77090101,11.553657 C7.77090101,11.6037986 7.79141317,11.6505207 7.83243811,11.6938248 C7.87346305,11.7371289 7.9167665,11.7587807 7.96234977,11.7587807 C8.03984132,11.7587807 8.11733171,11.7245937 8.19482326,11.6562188 C8.39994795,11.4875607 8.64609389,11.1821574 8.93326846,10.7399998 L9.16574196,10.8767489 C8.47743465,12.0755888 7.74583421,12.6749997 6.9709187,12.6749997 C6.67462747,12.6749997 6.43873761,12.5918115 6.26324204,12.4254326 C6.08774647,12.2590537 6,12.0482342 6,11.7929679 C6,11.6243099 6.03874519,11.4100717 6.11623675,11.1502471 L7.06664308,7.88194332 C7.15780961,7.56741879 7.20339219,7.33038936 7.20339219,7.17084793 C7.20339219,7.07056475 7.16008874,6.98167871 7.07348053,6.90418716 C6.98687233,6.82669561 6.86835762,6.78795042 6.71793284,6.78795042 C6.64955794,6.78795042 6.5675093,6.79022955 6.47178444,6.79478787 L6.56067136,6.52128965 L8.87856882,6.14522959 L9.28881616,6.14522959 Z" id="Oval-5" sketch:type="MSShapeGroup"></path>
            </g>
        </g>
    </g>
</svg>