<?xml version="1.0" encoding="UTF-8" standalone="no"?>
<svg width="48px" height="48px" viewBox="0 0 48 48" version="1.1" xmlns="http://www.w3.org/2000/svg" xmlns:xlink="http://www.w3.org/1999/xlink" xmlns:sketch="http://www.bohemiancoding.com/sketch/ns">
    <!-- Generator: Sketch 3.5.2 (25235) - http://www.bohemiancoding.com/sketch -->
    <title>twitter</title>
    <desc>Created with Sketch.</desc>
    <defs></defs>
    <g id="48x48" stroke="none" stroke-width="1" fill="none" fill-rule="evenodd" sketch:type="MSPage">
        <g id="twitter" sketch:type="MSArtboardGroup" fill="#3E97BD">
            <path d="M40,14.0778295 C38.8226051,14.5998704 37.5573064,14.9526956 36.2292695,15.1113792 C37.5848129,14.2990035 38.6257288,13.0126835 39.1159296,11.4800295 C37.8474706,12.2321382 36.4424156,12.7784029 34.9469988,13.0728335 C33.7493544,11.7971626 32.0431325,11 30.1548996,11 C26.5290757,11 23.5895095,13.9388058 23.5895095,17.5636022 C23.5895095,18.0780365 23.6476828,18.5790132 23.7595816,19.0593938 C18.3032298,18.7856763 13.4657156,16.1725463 10.2276748,12.2014781 C9.66256264,13.170899 9.33880537,14.2984184 9.33880537,15.5013008 C9.33880537,17.7784569 10.4979407,19.7875127 12.2595267,20.9645329 C11.183262,20.9304792 10.1710231,20.6352294 9.28578222,20.1436146 C9.28531402,20.170998 9.28531402,20.1984985 9.28531402,20.226116 C9.28531402,23.4063409 11.5483375,26.0592588 14.5516954,26.6621628 C14.0007462,26.8121866 13.4207689,26.8923476 12.8219467,26.8923476 C12.3989319,26.8923476 11.9876221,26.8512724 11.5868466,26.7746221 C12.4222247,29.3823691 14.8467757,31.2800187 17.719624,31.3330303 C15.4727532,33.0934116 12.6419255,34.1427594 9.56611434,34.1427594 C9.03623395,34.1427594 8.51361059,34.1117482 8,34.0511302 C10.9053879,35.9134388 14.3563408,37 18.0638648,37 C30.1395662,37 36.7429972,26.9983707 36.7429972,18.3247216 C36.7429972,18.040121 36.7366765,17.7570417 36.7240353,17.4756006 C38.0066572,16.5501805 39.1197922,15.3941074 40,14.0778295" id="Twitter-:-Logo" sketch:type="MSShapeGroup"></path>
        </g>
    </g>
</svg>