<?xml version="1.0" encoding="UTF-8" standalone="no"?>
<svg width="24px" height="24px" viewBox="0 0 24 24" version="1.1" xmlns="http://www.w3.org/2000/svg" xmlns:xlink="http://www.w3.org/1999/xlink">
    <!-- Generator: Sketch 3.7.2 (28276) - http://www.bohemiancoding.com/sketch -->
    <title>ID</title>
    <desc>Created with Sketch.</desc>
    <defs></defs>
    <g id="24x24" stroke="none" stroke-width="1" fill="none" fill-rule="evenodd">
        <g id="ID" fill="#3E97BD">
            <path d="M12.937688,4.77118882 C12.4198171,3.79298831 11.5779826,3.7971439 11.0623118,4.77118881 L3.93768809,18.2288117 C3.41981725,19.2070122 3.89262276,20.0000004 4.99508923,20.0000004 L19.0049103,20.0000005 C20.1067677,20.0000005 20.5779823,19.2028567 20.0623115,18.2288118 L12.937688,4.77118882 Z M12,18 C12.5522847,18 13,17.5522847 13,17 C13,16.4477153 12.5522847,16 12,16 C11.4477153,16 11,16.4477153 11,17 C11,17.5522847 11.4477153,18 12,18 Z M11,10.0368173 C11,9.485791 11.4438648,9.03909595 12,9.03909595 C12.5522847,9.03909595 13,9.48713258 13,10.0368173 L13,14.0022787 C13,14.553305 12.5561352,15 12,15 C11.4477153,15 11,14.5519634 11,14.0022787 L11,10.0368173 Z" id="Warning-:-Glyph"></path>
        </g>
    </g>
</svg>