<?xml version="1.0" encoding="UTF-8" standalone="no"?>
<svg width="17px" height="16px" viewBox="0 0 17 16" version="1.1" xmlns="http://www.w3.org/2000/svg" xmlns:xlink="http://www.w3.org/1999/xlink">
    <!-- Generator: Sketch 3.7.2 (28276) - http://www.bohemiancoding.com/sketch -->
    <title>Warning : Glyph</title>
    <desc>Created with Sketch.</desc>
    <defs></defs>
    <g id="Mocks" stroke="none" stroke-width="1" fill="none" fill-rule="evenodd">
        <g id="Heartstrings-Medium-14" transform="translate(-50.000000, -365.000000)" fill="#D0011B">
            <g id="Widget" transform="translate(11.000000, 186.000000)">
                <g id="Credit-Card-:-Field" transform="translate(24.000000, 163.000000)">
                    <path d="M24.2099917,16.7320929 C23.6921208,15.7538924 22.8502863,15.7580479 22.3346155,16.7320929 L15.2099918,30.1897157 C14.692121,31.1679162 15.1649265,31.9609044 16.267393,31.9609044 L30.277214,31.9609045 C31.3790714,31.9609045 31.850286,31.1637607 31.3346152,30.1897158 L24.2099917,16.7320929 Z M23.2723037,29.960904 C23.8245885,29.960904 24.2723037,29.5131888 24.2723037,28.960904 C24.2723037,28.4086193 23.8245885,27.960904 23.2723037,27.960904 C22.720019,27.960904 22.2723037,28.4086193 22.2723037,28.960904 C22.2723037,29.5131888 22.720019,29.960904 23.2723037,29.960904 Z M22.2723037,21.9977213 C22.2723037,21.446695 22.7161685,21 23.2723037,21 C23.8245885,21 24.2723037,21.4480366 24.2723037,21.9977213 L24.2723037,25.9631827 C24.2723037,26.514209 23.8284389,26.960904 23.2723037,26.960904 C22.720019,26.960904 22.2723037,26.5128674 22.2723037,25.9631827 L22.2723037,21.9977213 Z" id="Warning-:-Glyph"></path>
                </g>
            </g>
        </g>
    </g>
</svg>